<svg xmlns="http://www.w3.org/2000/svg" viewBox="0 0 41.5 36.7"><defs><style>.cls-1{fill:#517cff;}.cls-2{fill:none;stroke:#ebebeb;stroke-miterlimit:10;}.cls-3{fill:#ebebeb;}.cls-4{fill:#ebeb03;}.cls-5{fill:#605858;}</style></defs><g id="Layer_2" data-name="Layer 2"><g id="Layer_1-2" data-name="Layer 1"><path class="cls-1" d="M22.36,7.71c.76,3.75,0,8.91-4.53,9.84-4,.81-9.49-1.86-11.34-5.05a4.67,4.67,0,0,1-.56-1.41c-.62-3-.11-8.07,2.79-9.93.74-.47,3.84-.1,3.84-.1,4.53-.93,9,2.91,9.8,6.65"/><path class="cls-2" d="M22.36,7.71c.76,3.75,0,8.91-4.53,9.84-4,.81-9.49-1.86-11.34-5.05a4.67,4.67,0,0,1-.56-1.41c-.62-3-.11-8.07,2.79-9.93.74-.47,3.84-.1,3.84-.1C17.09.13,21.58,4,22.36,7.71Z"/><path class="cls-1" d="M29.84,16.83c-3.41,1.72-8.59,2.35-10.68-1.78s-.31-11.46,3.1-13.18c2.13-1.08,5.93-2,8.31-.83,1.43.7,1.77,2.72,2.55,4.26,2.1,4.14.13,9.8-3.28,11.53"/><path class="cls-2" d="M29.84,16.83c-3.41,1.72-8.59,2.35-10.68-1.78s-.31-11.46,3.1-13.18c2.13-1.08,5.93-2,8.31-.83,1.43.7,1.77,2.72,2.55,4.26C35.22,9.44,33.25,15.1,29.84,16.83Z"/><path class="cls-1" d="M27.51,27.09c-3.37-1.8-6.86-5.68-4.68-9.77s9.2-6.82,12.57-5c2.83,1.51,6.22,5.27,5.5,8.85-.13.69-.82,1.36-1.17,2-2.18,4.09-8.85,5.73-12.22,3.93"/><path class="cls-2" d="M27.51,27.09c-3.37-1.8-6.86-5.68-4.68-9.77s9.2-6.82,12.57-5c2.83,1.51,6.22,5.27,5.5,8.85-.13.69-.82,1.36-1.17,2C37.55,27.25,30.88,28.89,27.51,27.09Z"/><path class="cls-1" d="M12.05,22.72c1.78-3.38,5.64-6.89,9.74-4.73s6.87,9.17,5.09,12.55C25.67,32.84,23,36,20.09,36.2c-1.35.1-2.75-1.5-4.06-2.19-4.1-2.15-5.77-7.91-4-11.29"/><path class="cls-2" d="M12.05,22.72c1.78-3.38,5.64-6.89,9.74-4.73s6.87,9.17,5.09,12.55C25.67,32.84,23,36,20.09,36.2c-1.35.1-2.75-1.5-4.06-2.19C11.93,31.86,10.26,26.1,12.05,22.72Z"/><path class="cls-1" d="M7.16,13.45c1.29.51,5.1,4.21,10,2.7.59-.18,2.08,2.39,1,5.12-1.69,4.31-8.34,7.85-11.9,6.45C4.56,27,1.05,24.81.7,24.2c-.53-1,.07-4.67.93-6.88a5.51,5.51,0,0,1,5.53-3.87"/><path class="cls-2" d="M7.16,13.45c1.29.51,5.1,4.21,10,2.7.59-.18,2.08,2.39,1,5.12-1.69,4.31-8.34,7.85-11.9,6.45C4.56,27,1.05,24.81.7,24.2c-.53-1,.07-4.67.93-6.88A5.51,5.51,0,0,1,7.16,13.45Z"/><path class="cls-3" d="M23.13,12.92c-.52,1-1.59,1.94-2.11,1.66s-.31-1.7.22-2.68S23.48,8.77,24,9.05s-.34,2.9-.87,3.87"/><path class="cls-3" d="M17,12.69c.62.92,1,2.31.48,2.65s-1.65-.53-2.27-1.45S13.47,10.44,14,10.11s2.41,1.66,3,2.58"/><path class="cls-3" d="M20,23.09c-.17-1.1.11-2.51.7-2.6s1.26,1.18,1.42,2.28.09,3.85-.5,3.94S20.15,24.19,20,23.09"/><path class="cls-3" d="M25.25,19.08c-1.09-.23-2.31-1-2.19-1.56s1.55-.78,2.63-.55,3.65,1.25,3.52,1.84-2.87.49-4,.27"/><path class="cls-4" d="M21.73,19.62c-.78-.41-1.59-1.31-1.08-2.26a2.63,2.63,0,0,1,2.9-1.16,1.94,1.94,0,0,1,.8,2.51,2.11,2.11,0,0,1-2.62.91"/><path class="cls-3" d="M14.3,18.7c.91-.63,2.3-1,2.64-.51s-.5,1.65-1.42,2.28-3.41,1.78-3.75,1.29,1.62-2.43,2.53-3.06"/><path class="cls-4" d="M20.54,15.14c.18.87,0,2.06-1.05,2.28a2.65,2.65,0,0,1-2.75-1.5,1.94,1.94,0,0,1,0-.68,1.89,1.89,0,0,1,1.43-1.53,2.13,2.13,0,0,1,2.37,1.43"/><path class="cls-4" d="M22.27,17.25c-.79.4-2,.54-2.47-.41a2.63,2.63,0,0,1,.72-3.05,1.93,1.93,0,0,1,2.51.79,2.13,2.13,0,0,1-.76,2.67"/><path class="cls-4" d="M18.15,18.61c.42-.78,1.31-1.59,2.26-1.09a2.67,2.67,0,0,1,1.18,2.9,1.94,1.94,0,0,1-2.51.8,2.11,2.11,0,0,1-.93-2.61"/><path class="cls-4" d="M18.24,16.16c.82.32,1.73,1.12,1.33,2.11a2.63,2.63,0,0,1-2.75,1.5,1.93,1.93,0,0,1-1.07-2.41,2.11,2.11,0,0,1,2.49-1.2"/><path class="cls-5" d="M20.1,16.11c.08.38,0,.92-.47,1a1.18,1.18,0,0,1-1.23-.67.86.86,0,0,1,.63-1,1,1,0,0,1,1.07.65"/><path class="cls-5" d="M20.87,17.05c-.35.18-.89.24-1.11-.18a1.19,1.19,0,0,1,.33-1.37.86.86,0,0,1,1.12.36.93.93,0,0,1-.34,1.19"/><path class="cls-5" d="M20.63,18.11c-.35-.18-.71-.59-.48-1a1.18,1.18,0,0,1,1.3-.52.86.86,0,0,1,.35,1.13.94.94,0,0,1-1.17.4"/><path class="cls-5" d="M19,17.66c.19-.35.59-.71,1-.49a1.18,1.18,0,0,1,.52,1.3.85.85,0,0,1-1.12.36A1,1,0,0,1,19,17.66"/><path class="cls-5" d="M19.07,16.56c.37.15.77.51.59,1a1.18,1.18,0,0,1-1.23.67A.86.86,0,0,1,18,17.1a1,1,0,0,1,1.12-.54"/><path class="cls-5" d="M20.3,17.2a.46.46,0,0,1-.46.46.46.46,0,0,1,0-.92.46.46,0,0,1,.46.46"/></g></g></svg>